<svg xmlns="http://www.w3.org/2000/svg" width="12" height="12" viewBox="0 0 12 12"><defs><mask id="px27b" width="2" height="2" x="-1" y="-1"><path fill="#fff" d="M0 0h12v11H0z"/><path d="M8.964-.02c1.597-.023 3 .776 3.024 2.983.023 2.109-5.5 7.273-5.994 7.73C5.5 10.237-.023 5.073 0 2.964.023.756 1.427-.043 3.024-.019c1.51.022 2.833 1.328 2.97 1.467.137-.14 1.459-1.445 2.97-1.467z"/></mask><filter id="px27a" width="32" height="32" x="-10" y="-10" filterUnits="userSpaceOnUse"><feOffset dy="1" in="SourceGraphic" result="FeOffset1101Out"/><feGaussianBlur in="FeOffset1101Out" result="FeGaussianBlur1102Out" stdDeviation="0 0"/></filter><filter id="px27c" width="200%" height="200%" x="-50%" y="-50%"><feGaussianBlur in="SourceGraphic" result="FeGaussianBlur1108Out" stdDeviation="0 0"/></filter><mask id="px27d"><path fill="#fff" d="M8.964-.02c1.597-.023 3 .776 3.024 2.983.023 2.109-5.5 7.273-5.994 7.73C5.5 10.237-.023 5.073 0 2.964.023.756 1.427-.043 3.024-.019c1.51.022 2.833 1.328 2.97 1.467.137-.14 1.459-1.445 2.97-1.467z"/></mask></defs><g><g><g filter="url(#px27a)"><path fill="none" d="M8.964-.02c1.597-.023 3 .776 3.024 2.983.023 2.109-5.5 7.273-5.994 7.73C5.5 10.237-.023 5.073 0 2.964.023.756 1.427-.043 3.024-.019c1.51.022 2.833 1.328 2.97 1.467.137-.14 1.459-1.445 2.97-1.467z" mask="url(&quot;#px27b&quot;)"/><path fill="#fff" fill-opacity=".9" d="M8.964-.02c1.597-.023 3 .776 3.024 2.983.023 2.109-5.5 7.273-5.994 7.73C5.5 10.237-.023 5.073 0 2.964.023.756 1.427-.043 3.024-.019c1.51.022 2.833 1.328 2.97 1.467.137-.14 1.459-1.445 2.97-1.467z"/></g><path fill="#333" d="M8.964-.02c1.597-.023 3 .776 3.024 2.983.023 2.109-5.5 7.273-5.994 7.73C5.5 10.237-.023 5.073 0 2.964.023.756 1.427-.043 3.024-.019c1.51.022 2.833 1.328 2.97 1.467.137-.14 1.459-1.445 2.97-1.467z"/><path fill="#73b4d5" d="M8.964-.02c1.597-.023 3 .776 3.024 2.983.023 2.109-5.5 7.273-5.994 7.73C5.5 10.237-.023 5.073 0 2.964.023.756 1.427-.043 3.024-.019c1.51.022 2.833 1.328 2.97 1.467.137-.14 1.459-1.445 2.97-1.467z"/><path fill-opacity=".3" d="M0 12V2.009c.056 2.136 5.504 7.23 5.994 7.685.494-.458 6.017-5.622 5.994-7.73C11.968-.019 10.835-.865 9.448-1H12v13zM0-1h2.54C1.16-.865.03-.026 0 1.936zM5.994.448C5.866.318 4.699-.835 3.311-1h5.366C7.29-.835 6.122.317 5.994.448zm-2.97-1.467A4.316 4.316 0 0 0 2.54-1h.77a2.78 2.78 0 0 0-.286-.02zM0 1.963v.046-.073.027zm8.964-2.982A2.78 2.78 0 0 0 8.677-1h.771a4.317 4.317 0 0 0-.484-.02z" filter="url(#px27c)" mask="url(&quot;#px27d&quot;)"/></g></g></svg>