<svg xmlns="http://www.w3.org/2000/svg" width="13" height="14" viewBox="0 0 13 14"><defs><mask id="11jib" width="2" height="2" x="-1" y="-1"><path fill="#fff" d="M0 0h13v13H0z"/><path d="M1-.001h11a1 1 0 0 1 1 1v7a1 1 0 0 1-1 1h-2v3.75l-3.75-3.75H1a1 1 0 0 1-1-1v-7a1 1 0 0 1 1-1z"/></mask><filter id="11jia" width="33" height="34" x="-10" y="-10" filterUnits="userSpaceOnUse"><feOffset dy="1" in="SourceGraphic" result="FeOffset1127Out"/><feGaussianBlur in="FeOffset1127Out" result="FeGaussianBlur1128Out" stdDeviation="0 0"/></filter><filter id="11jic" width="200%" height="200%" x="-50%" y="-50%"><feGaussianBlur in="SourceGraphic" result="FeGaussianBlur1134Out" stdDeviation="0 0"/></filter><mask id="11jid"><path fill="#fff" d="M1-.001h11a1 1 0 0 1 1 1v7a1 1 0 0 1-1 1h-2v3.75l-3.75-3.75H1a1 1 0 0 1-1-1v-7a1 1 0 0 1 1-1z"/></mask></defs><g><g><g filter="url(#11jia)"><path fill="none" d="M1-.001h11a1 1 0 0 1 1 1v7a1 1 0 0 1-1 1h-2v3.75l-3.75-3.75H1a1 1 0 0 1-1-1v-7a1 1 0 0 1 1-1z" mask="url(&quot;#11jib&quot;)"/><path fill="#fff" fill-opacity=".9" d="M1-.001h11a1 1 0 0 1 1 1v7a1 1 0 0 1-1 1h-2v3.75l-3.75-3.75H1a1 1 0 0 1-1-1v-7a1 1 0 0 1 1-1z"/></g><path fill="#b3b3b3" d="M1-.001h11a1 1 0 0 1 1 1v7a1 1 0 0 1-1 1h-2v3.75l-3.75-3.75H1a1 1 0 0 1-1-1v-7a1 1 0 0 1 1-1z"/><path fill="#73b4d5" d="M1-.001h11a1 1 0 0 1 1 1v7a1 1 0 0 1-1 1h-2v3.75l-3.75-3.75H1a1 1 0 0 1-1-1v-7a1 1 0 0 1 1-1z"/><path fill-opacity=".3" d="M0 14V7.021A1 1 0 0 0 1 8h5.25l3.75 3.75v-3.75h2a1 1 0 0 0 1-1v-7A1 1 0 0 0 12.047-1H13v15zM0-1h.953A1 1 0 0 0 0-.023zm1-.001L.953-1h11.094L12-1.001zm-1 1v7.022-7.044.022z" filter="url(#11jic)" mask="url(&quot;#11jid&quot;)"/></g></g></svg>